<?xml version="1.0" encoding="UTF-8" ?>
<!DOCTYPE svg PUBLIC "-//W3C//DTD SVG 1.1//EN" "http://www.w3.org/Graphics/SVG/1.1/DTD/svg11.dtd">
<svg width="512pt" height="512pt" viewBox="0 0 512 512" version="1.1" xmlns="http://www.w3.org/2000/svg">
<g id="#ffffffff">
<path fill="#ffffff" opacity="1.00" d=" M 25.97 17.93 C 38.17 7.48 53.89 1.12 69.96 0.50 C 194.32 0.49 318.68 0.49 443.05 0.50 C 459.32 1.12 475.22 7.65 487.49 18.33 C 500.77 29.81 509.62 46.22 512.00 63.62 L 512.00 449.47 C 509.80 465.13 502.44 480.01 491.23 491.18 C 480.04 502.43 465.10 509.83 449.39 512.00 L 63.54 512.00 C 51.85 510.31 40.53 505.89 30.95 498.95 C 14.95 487.62 3.90 469.56 1.15 450.15 C 0.24 444.81 0.53 439.38 0.50 434.00 C 0.50 312.66 0.49 191.33 0.50 70.00 C 1.23 50.10 10.83 30.81 25.97 17.93 M 163.25 84.27 C 134.05 125.65 104.70 166.93 75.50 208.31 C 104.81 249.27 134.09 290.26 163.39 331.24 C 165.01 331.24 166.63 331.24 168.26 331.25 C 170.13 331.25 172.00 331.24 173.88 331.23 C 144.61 290.22 115.27 249.26 85.99 208.27 C 115.25 166.95 144.50 125.61 173.77 84.29 C 170.26 84.23 166.76 84.16 163.25 84.27 M 173.52 88.57 C 145.35 128.45 117.17 168.33 88.97 208.18 C 105.27 231.41 121.87 254.43 138.31 277.56 C 151.19 295.46 163.73 313.60 176.82 331.33 C 232.03 331.10 287.24 331.40 342.45 331.18 C 335.23 324.19 327.59 317.64 320.26 310.76 C 318.76 309.47 317.32 307.53 315.08 307.99 C 272.99 308.01 230.90 308.00 188.82 307.99 C 165.14 274.69 141.28 241.51 117.74 208.11 C 141.46 174.61 165.17 141.10 188.81 107.54 C 238.28 107.48 287.75 107.43 337.22 107.57 C 359.38 138.93 381.71 170.18 403.95 201.48 C 413.50 201.49 423.06 201.52 432.62 201.47 C 405.06 162.32 377.08 123.46 349.49 84.33 C 292.65 84.14 235.80 84.32 178.96 84.23 C 175.95 83.49 175.02 86.74 173.52 88.57 M 325.79 111.27 C 347.05 141.43 368.55 171.42 389.91 201.50 C 391.70 201.49 393.50 201.50 395.30 201.50 C 396.96 201.49 398.63 201.48 400.31 201.47 C 379.04 171.31 357.53 141.33 336.18 111.22 C 332.72 111.35 329.25 111.24 325.79 111.27 M 167.66 181.80 C 176.15 189.55 184.69 197.23 193.18 204.99 C 195.30 205.00 197.41 205.00 199.53 205.00 C 201.65 205.01 203.76 204.99 205.88 204.97 C 197.34 197.18 188.85 189.34 180.18 181.70 C 178.30 181.74 176.42 181.75 174.55 181.77 C 172.25 181.74 169.95 181.75 167.66 181.80 M 183.76 181.85 C 192.02 189.72 200.62 197.22 208.97 204.98 C 251.36 205.04 293.75 204.97 336.13 205.01 C 338.11 204.77 338.68 207.09 339.74 208.27 C 362.64 240.46 385.60 272.60 408.50 304.79 C 384.79 338.36 361.06 371.91 337.34 405.47 C 288.02 405.55 238.69 405.48 189.37 405.51 C 167.60 374.99 145.88 344.42 124.19 313.84 C 123.37 312.81 122.66 311.16 121.03 311.51 C 111.88 311.53 102.73 311.42 93.59 311.58 C 121.05 350.40 148.68 389.10 176.21 427.87 C 176.96 429.20 178.70 428.60 179.92 428.78 C 236.54 428.72 293.16 428.75 349.79 428.77 C 379.10 387.49 408.22 346.07 437.51 304.77 C 408.38 263.73 379.06 222.83 349.94 181.78 C 294.55 181.77 239.15 181.64 183.76 181.85 M 325.56 208.78 C 348.36 240.70 371.07 272.71 394.06 304.49 C 393.50 305.45 392.92 306.40 392.30 307.32 C 369.91 338.86 347.62 370.47 325.22 402.00 C 326.95 401.99 328.69 402.00 330.43 402.00 C 332.20 401.99 333.97 401.99 335.74 401.99 C 358.71 369.58 381.65 337.16 404.59 304.73 C 381.76 272.72 358.87 240.74 336.00 208.75 C 334.21 208.75 332.43 208.75 330.66 208.75 C 328.96 208.75 327.25 208.76 325.56 208.78 M 78.81 311.51 C 106.58 350.63 134.58 389.58 162.46 428.62 L 161.90 428.67 C 165.61 428.69 169.31 428.76 173.02 428.74 C 145.10 389.64 117.19 350.53 89.19 311.49 C 87.39 311.50 85.59 311.50 83.79 311.51 C 82.13 311.50 80.47 311.50 78.81 311.51 Z" />
</g>
<g id="#686868ff">
<path fill="#686868" opacity="1.00" d=" M 163.25 84.27 C 166.76 84.16 170.26 84.23 173.77 84.29 C 144.50 125.61 115.25 166.95 85.99 208.27 C 115.27 249.26 144.61 290.22 173.88 331.23 C 172.00 331.24 170.13 331.25 168.26 331.25 C 145.21 298.54 121.77 266.10 98.53 233.51 C 92.62 225.05 86.33 216.83 80.66 208.20 C 105.87 172.26 131.37 136.51 156.70 100.65 C 160.33 95.34 164.43 90.33 167.62 84.73 C 166.16 84.57 164.71 84.42 163.25 84.27 Z" />
<path fill="#686868" opacity="1.00" d=" M 331.76 111.80 C 333.23 111.61 334.71 111.41 336.18 111.22 C 357.53 141.33 379.04 171.31 400.31 201.47 C 398.63 201.48 396.96 201.49 395.30 201.50 C 374.30 171.48 352.66 141.90 331.76 111.80 Z" />
<path fill="#686868" opacity="1.00" d=" M 174.55 181.77 C 176.42 181.75 178.30 181.74 180.18 181.70 C 188.85 189.34 197.34 197.18 205.88 204.97 C 203.76 204.99 201.65 205.01 199.53 205.00 C 191.54 196.90 182.62 189.79 174.55 181.77 Z" />
<path fill="#686868" opacity="1.00" d=" M 325.56 208.78 C 327.25 208.76 328.96 208.75 330.66 208.75 C 349.53 235.68 368.87 262.28 387.92 289.09 C 391.57 294.37 395.59 299.41 398.98 304.88 C 376.23 337.32 353.03 369.45 330.43 402.00 C 328.69 402.00 326.95 401.99 325.22 402.00 C 347.62 370.47 369.91 338.86 392.30 307.32 C 392.92 306.40 393.50 305.45 394.06 304.49 C 371.07 272.71 348.36 240.70 325.56 208.78 Z" />
<path fill="#686868" opacity="1.00" d=" M 78.81 311.51 C 80.47 311.50 82.13 311.50 83.79 311.51 C 111.45 350.47 139.45 389.19 167.05 428.20 C 165.51 428.34 163.99 428.48 162.46 428.62 C 134.58 389.58 106.58 350.63 78.81 311.51 Z" />
</g>
<g id="#b4a896ff">
<path fill="#b4a896" opacity="1.00" d=" M 173.52 88.57 C 175.02 86.74 175.95 83.49 178.96 84.23 C 235.80 84.32 292.65 84.14 349.49 84.33 C 377.08 123.46 405.06 162.32 432.62 201.47 C 423.06 201.52 413.50 201.49 403.95 201.48 C 381.71 170.18 359.38 138.93 337.22 107.57 C 287.75 107.43 238.28 107.48 188.81 107.54 C 165.17 141.10 141.46 174.61 117.74 208.11 C 141.28 241.51 165.14 274.69 188.82 307.99 C 230.90 308.00 272.99 308.01 315.08 307.99 C 317.32 307.53 318.76 309.47 320.26 310.76 C 327.59 317.64 335.23 324.19 342.45 331.18 C 287.24 331.40 232.03 331.10 176.82 331.33 C 163.73 313.60 151.19 295.46 138.31 277.56 C 121.87 254.43 105.27 231.41 88.97 208.18 C 117.17 168.33 145.35 128.45 173.52 88.57 Z" />
<path fill="#b4a896" opacity="1.00" d=" M 183.76 181.85 C 239.15 181.64 294.55 181.77 349.94 181.78 C 379.06 222.83 408.38 263.73 437.51 304.77 C 408.22 346.07 379.10 387.49 349.79 428.77 C 293.16 428.75 236.54 428.72 179.92 428.78 C 178.70 428.60 176.96 429.20 176.21 427.87 C 148.68 389.10 121.05 350.40 93.59 311.58 C 102.73 311.42 111.88 311.53 121.03 311.51 C 122.66 311.16 123.37 312.81 124.19 313.84 C 145.88 344.42 167.60 374.99 189.37 405.51 C 238.69 405.48 288.02 405.55 337.34 405.47 C 361.06 371.91 384.79 338.36 408.50 304.79 C 385.60 272.60 362.64 240.46 339.74 208.27 C 338.68 207.09 338.11 204.77 336.13 205.01 C 293.75 204.97 251.36 205.04 208.97 204.98 C 200.62 197.22 192.02 189.72 183.76 181.85 Z" />
</g>
<g id="#69572aff">
<path fill="#69572a" opacity="1.00" d=" M 75.50 208.31 C 104.70 166.93 134.05 125.65 163.25 84.27 C 164.71 84.42 166.16 84.57 167.62 84.73 C 164.43 90.33 160.33 95.34 156.70 100.65 C 131.37 136.51 105.87 172.26 80.66 208.20 C 86.33 216.83 92.62 225.05 98.53 233.51 C 121.77 266.10 145.21 298.54 168.26 331.25 C 166.63 331.24 165.01 331.24 163.39 331.24 C 134.09 290.26 104.81 249.27 75.50 208.31 Z" />
<path fill="#69572a" opacity="1.00" d=" M 325.79 111.27 C 329.25 111.24 332.72 111.35 336.18 111.22 C 334.71 111.41 333.23 111.61 331.76 111.80 C 352.66 141.90 374.30 171.48 395.30 201.50 C 393.50 201.50 391.70 201.49 389.91 201.50 C 368.55 171.42 347.05 141.43 325.79 111.27 Z" />
<path fill="#69572a" opacity="1.00" d=" M 167.66 181.80 C 169.95 181.75 172.25 181.74 174.55 181.77 C 182.62 189.79 191.54 196.90 199.53 205.00 C 197.41 205.00 195.30 205.00 193.18 204.99 C 184.69 197.23 176.15 189.55 167.66 181.80 Z" />
<path fill="#69572a" opacity="1.00" d=" M 330.66 208.75 C 332.43 208.75 334.21 208.75 336.00 208.75 C 358.87 240.74 381.76 272.72 404.59 304.73 C 381.65 337.16 358.71 369.58 335.74 401.99 C 333.97 401.99 332.20 401.99 330.43 402.00 C 353.03 369.45 376.23 337.32 398.98 304.88 C 395.59 299.41 391.57 294.37 387.92 289.09 C 368.87 262.28 349.53 235.68 330.66 208.75 Z" />
<path fill="#69572a" opacity="1.00" d=" M 83.79 311.51 C 85.59 311.50 87.39 311.50 89.19 311.49 C 117.19 350.53 145.10 389.64 173.02 428.74 C 169.31 428.76 165.61 428.69 161.90 428.67 L 162.46 428.62 C 163.99 428.48 165.51 428.34 167.05 428.20 C 139.45 389.19 111.45 350.47 83.79 311.51 Z" />
</g>
</svg>
