<?xml version="1.0" encoding="UTF-8" ?>
<!DOCTYPE svg PUBLIC "-//W3C//DTD SVG 1.1//EN" "http://www.w3.org/Graphics/SVG/1.1/DTD/svg11.dtd">
<svg width="67pt" height="66pt" viewBox="0 0 67 66" version="1.1" xmlns="http://www.w3.org/2000/svg">

<g id="#000000ff">
<path fill="#000000" opacity="1.00" d=" M 2.00 0.98  M 31.66 4.78 C 27.01 11.90 22.83 19.32 19.05 26.94 C 16.71 32.03 14.16 37.28 14.03 43.00 C 14.29 52.17 21.19 60.58 30.21 62.48 C 39.41 64.77 49.60 59.49 53.46 50.93 C 52.76 48.60 50.71 48.76 49.80 50.85 C 45.96 57.70 37.30 61.30 29.77 58.98 C 21.48 56.73 15.52 47.48 17.86 39.02 C 21.34 27.19 28.27 16.84 34.40 6.28 C 35.69 7.81 36.85 9.44 37.83 11.18 C 43.12 20.20 48.53 29.32 51.67 39.36 C 49.63 39.39 47.59 39.41 45.55 39.42 C 44.19 35.69 43.00 31.90 41.58 28.19 C 41.28 26.46 38.71 26.49 38.39 28.20 C 36.54 34.04 34.78 39.92 33.14 45.83 C 32.21 44.00 31.46 42.09 30.44 40.31 C 29.44 38.93 27.49 39.56 26.05 39.36 C 24.37 39.49 22.43 38.98 20.98 40.10 C 21.04 40.72 21.15 41.96 21.20 42.58 C 23.45 42.59 25.70 42.60 27.95 42.60 C 29.26 45.21 30.39 47.90 31.66 50.52 C 32.09 51.65 33.43 52.59 34.56 51.71 C 36.63 45.83 38.19 39.78 40.03 33.83 C 41.18 36.71 42.03 39.71 43.29 42.55 C 46.82 42.56 50.37 42.75 53.91 42.52 C 55.20 42.12 55.11 40.24 54.91 39.15 C 52.69 30.32 47.94 22.45 43.62 14.52 C 41.51 11.19 39.73 7.63 37.38 4.46 C 36.05 2.42 32.78 2.58 31.66 4.78 Z" />
</g>
</svg>
